<?xml version="1.0" encoding="UTF-8"?>
<svg version="1.1" xmlns="http://www.w3.org/2000/svg" width="1215" height="247">
<path d="M0 0 C7.46897096 -0.14012105 14.81169495 0.28363403 22.25 0.9375 C23.82394531 1.06801758 23.82394531 1.06801758 25.4296875 1.20117188 C30.33600266 1.62038235 35.1468057 2.14788182 40 3 C47.37977502 23.33760231 54.65149615 43.70656213 61.625 64.1875 C61.91795959 65.04777802 62.21091919 65.90805603 62.51275635 66.79440308 C65.70795843 76.18547081 68.86794885 85.58766617 72 95 C72.16226656 85.43815251 72.28660596 75.87677959 72.3626852 66.31385517 C72.39920206 61.87321115 72.44872117 57.4335097 72.52807617 52.9934082 C72.60419573 48.70746304 72.64600194 44.4224237 72.6641407 40.13585472 C72.67706458 38.50147425 72.7023037 36.86714282 72.7401104 35.23314857 C73.33750605 26.62787183 73.33750605 26.62787183 70.41908264 18.9617157 C68.32154558 17.43780808 68.32154558 17.43780808 65 16 C64.31640625 13.10546875 64.31640625 13.10546875 64.5625 10.1875 C64.62566406 9.21167969 64.68882812 8.23585938 64.75390625 7.23046875 C64.87572266 6.12638672 64.87572266 6.12638672 65 5 C80.13186215 6.28494025 95.02831764 8.47199462 110 11 C110 14.63 110 18.26 110 22 C107.69 22.99 105.38 23.98 103 25 C103.0077306 25.96984502 103.0077306 25.96984502 103.01561737 26.95928288 C103.14220469 42.8510643 103.26740598 58.74285599 103.39115143 74.63465977 C103.45103088 82.32049139 103.51134282 90.00631912 103.57275391 97.69213867 C103.62641418 104.40806526 103.67918064 111.12399823 103.73096704 117.83993953 C103.76353479 122.05905684 103.79697473 126.27816555 103.83142519 130.4972679 C103.84744332 132.50340662 103.86226378 134.50955178 103.87699127 136.51570034 C103.89759055 139.11578205 103.92232022 141.71583474 103.9514389 144.315835 C104.00991023 150.38192433 104.01119626 156.43493512 103.83125162 162.49838573 C103.74767236 165.36532019 103.6884868 168.23257237 103.62993526 171.1001128 C103.57746649 173.11793692 103.48717716 175.13466548 103.39594269 177.15110874 C103.00158985 183.44252118 103.00158985 183.44252118 105.56436157 188.87069893 C107.67948785 190.3943079 107.67948785 190.3943079 111 192 C111.68359375 194.67578125 111.68359375 194.67578125 111.4375 197.3125 C111.37433594 198.19550781 111.31117188 199.07851562 111.24609375 199.98828125 C111.16488281 200.65214844 111.08367187 201.31601563 111 202 C104.01199808 202.14133038 97.04270074 201.93808204 90.0625 201.625 C88.81956177 201.5787146 88.81956177 201.5787146 87.55151367 201.53149414 C86.76236572 201.4927417 85.97321777 201.45398926 85.16015625 201.4140625 C84.45511963 201.3826416 83.75008301 201.3512207 83.02368164 201.31884766 C80.48679338 200.91914008 79.08744399 200.54316032 77 199 C75.90236633 196.63798664 75.07168772 194.47014911 74.29296875 192.00390625 C74.05100266 191.28058609 73.80903656 190.55726593 73.55973816 189.81202698 C73.03342037 188.2330736 72.5139387 186.65182916 72.00042725 185.06866455 C70.88894226 181.64207959 69.74527296 178.22649048 68.60412598 174.80969238 C67.99974193 172.99834954 67.39715745 171.18640538 66.79626465 169.37390137 C63.4370194 159.25083647 59.90753478 149.18860713 56.375 139.125 C50.17541399 121.44185187 44.09169071 103.72128206 38 86 C38 117.68 38 149.36 38 182 C40.97 182.99 40.97 182.99 44 184 C44.66 184.33 45.32 184.66 46 185 C46 188.96 46 192.92 46 197 C39.75189671 196.88208264 33.5039635 196.75785938 27.25610352 196.62768555 C25.12885993 196.58426577 23.0015799 196.54259607 20.87426758 196.50268555 C17.82361849 196.44515293 14.77315411 196.38141033 11.72265625 196.31640625 C10.76537125 196.29969376 9.80808624 196.28298126 8.8217926 196.26576233 C7.94095505 196.24581711 7.06011749 196.22587189 6.15258789 196.20532227 C5.37315323 196.18977798 4.59371857 196.1742337 3.79066467 196.15821838 C2 196 2 196 1 195 C0.92773498 193.14712498 0.9161878 191.29166122 0.9375 189.4375 C0.94652344 188.42558594 0.95554687 187.41367188 0.96484375 186.37109375 C0.98224609 185.19740234 0.98224609 185.19740234 1 184 C6.75 181 6.75 181 9 181 C8.99484627 180.33889725 8.98969254 179.67779449 8.98438263 178.99665833 C8.85778185 162.74568234 8.73258065 146.49469619 8.60884857 130.24369812 C8.54897523 122.38413985 8.48866558 114.52458542 8.42724609 106.66503906 C8.37357698 99.7971156 8.32081057 92.92918582 8.26903296 86.06124783 C8.2417085 82.44069853 8.21399716 78.82015335 8.18519592 75.19961548 C8.025942 55.13260971 7.97124666 35.06755677 8 15 C6.83452637 14.54524292 6.83452637 14.54524292 5.64550781 14.08129883 C2.93939455 12.97522873 1.05356868 12.08715509 -1 10 C-1.23617829 6.59151791 -0.52447044 3.36535196 0 0 Z " fill="#FFFFFF" transform="translate(478,4)"/>
<path d="M0 0 C0.6315802 0.16757812 1.2631604 0.33515625 1.91387939 0.5078125 C19.77689514 5.26965463 37.3530007 10.9979781 54.9375 16.6875 C54.9375 19.9875 54.9375 23.2875 54.9375 26.6875 C52.6275 27.3475 50.3175 28.0075 47.9375 28.6875 C47.9375 77.8575 47.9375 127.0275 47.9375 177.6875 C49.9175 178.3475 51.8975 179.0075 53.9375 179.6875 C55.5875 180.3475 57.2375 181.0075 58.9375 181.6875 C58.9375 185.3175 58.9375 188.9475 58.9375 192.6875 C52.88592612 192.16481566 46.83541698 191.63151746 40.78564453 191.08837891 C38.72763424 190.90512031 36.66936368 190.72476027 34.61083984 190.54736328 C31.6512848 190.29181077 28.69282358 190.02583456 25.734375 189.7578125 C24.81444763 189.68063995 23.89452026 189.60346741 22.94671631 189.5239563 C21.65583099 189.40405838 21.65583099 189.40405838 20.33886719 189.28173828 C19.20635529 189.18181076 19.20635529 189.18181076 18.05096436 189.0798645 C15.9375 188.6875 15.9375 188.6875 11.9375 186.6875 C11.9375 183.3875 11.9375 180.0875 11.9375 176.6875 C15.9375 174.6875 15.9375 174.6875 18.9375 174.6875 C18.9375 154.2275 18.9375 133.7675 18.9375 112.6875 C15.6375 111.6975 12.3375 110.7075 8.9375 109.6875 C3.6575 108.0375 -1.6225 106.3875 -7.0625 104.6875 C-7.0625 126.4675 -7.0625 148.2475 -7.0625 170.6875 C-4.7525 171.6775 -2.4425 172.6675 -0.0625 173.6875 C-0.0625 177.6475 -0.0625 181.6075 -0.0625 185.6875 C-8.25149434 185.87306342 -16.29347453 185.24693154 -24.43383789 184.46069336 C-26.65126261 184.24747469 -28.86945753 184.04422555 -31.08789062 183.84179688 C-32.49745127 183.70892014 -33.90695877 183.57547804 -35.31640625 183.44140625 C-36.58814697 183.32095947 -37.8598877 183.2005127 -39.17016602 183.07641602 C-42.0625 182.6875 -42.0625 182.6875 -43.0625 181.6875 C-43.13476502 179.83462498 -43.1463122 177.97916122 -43.125 176.125 C-43.11597656 175.11308594 -43.10695313 174.10117188 -43.09765625 173.05859375 C-43.08025391 171.88490234 -43.08025391 171.88490234 -43.0625 170.6875 C-40.0925 169.6975 -40.0925 169.6975 -37.0625 168.6875 C-37.13355453 167.85263565 -37.20460907 167.0177713 -37.27781677 166.15760803 C-38.38112313 150.88373139 -38.19170506 135.58402066 -38.16389394 120.28022647 C-38.15757246 116.20570466 -38.15704973 112.13118184 -38.15586853 108.05665588 C-38.15278083 100.36840859 -38.14460254 92.68017579 -38.13451904 84.99193484 C-38.12327763 76.22750139 -38.11782737 67.46306719 -38.11282361 58.69862831 C-38.10241731 40.6949107 -38.08486832 22.69120652 -38.0625 4.6875 C-22.67859729 -3.00445136 -16.98380765 -4.52961216 0 0 Z M-8.0625 14.6875 C-8.0625 38.1175 -8.0625 61.5475 -8.0625 85.6875 C5.1770026 91.2293708 5.1770026 91.2293708 18.9375 93.6875 C18.9375 70.2575 18.9375 46.8275 18.9375 22.6875 C5.66079136 17.25707293 5.66079136 17.25707293 -8.0625 14.6875 Z " fill="#FFFFFF" transform="translate(641.0625,25.3125)"/>
<path d="M0 0 C0.77085937 0.41636719 1.54171875 0.83273438 2.3359375 1.26171875 C7.92992881 4.30492881 7.92992881 4.30492881 9.125 5.5 C9.25529277 7.23639356 9.3162592 8.97803849 9.34960938 10.71899414 C9.38338684 12.39192284 9.38338684 12.39192284 9.41784668 14.09864807 C9.4886822 19.22868111 9.54660664 24.35864071 9.58496094 29.48901367 C9.60716556 32.19279116 9.6488145 34.89517264 9.70800781 37.59838867 C9.78724054 41.49439533 9.82029492 45.38846127 9.84375 49.28515625 C9.87674194 50.48753433 9.90973389 51.68991241 9.94372559 52.9287262 C9.92989326 58.7576836 9.69671624 62.59897445 5.83007812 67.13842773 C-0.62169485 73.5 -0.62169485 73.5 -3.875 73.5 C-3.875 74.16 -3.875 74.82 -3.875 75.5 C-2.6684375 75.809375 -2.6684375 75.809375 -1.4375 76.125 C0.3259375 76.805625 0.3259375 76.805625 2.125 77.5 C2.90617187 77.76425781 3.68734375 78.02851562 4.4921875 78.30078125 C7.48693622 79.69290885 9.02714923 80.9274023 11.125 83.5 C11.62438619 86.18951237 11.83809344 88.44341998 11.8828125 91.1484375 C11.92461891 92.36337639 11.92461891 92.36337639 11.9672699 93.6028595 C12.35565311 107.03863625 12.23446398 120.49587061 12.19366455 133.93615723 C12.18327221 137.73152093 12.17883351 141.52689168 12.17382812 145.32226562 C12.16323422 152.71486249 12.14626062 160.10742528 12.125 167.5 C14.435 168.82 16.745 170.14 19.125 171.5 C19.125 174.8 19.125 178.1 19.125 181.5 C9.13320215 186.2087783 -5.92182195 185.01651602 -16.875 184.5 C-18.64476356 182.73023644 -18.03676875 180.17162164 -18.06445312 177.7722168 C-18.08117065 176.54129807 -18.09788818 175.31037933 -18.1151123 174.04216003 C-18.12179428 173.37721212 -18.12847626 172.71226421 -18.13536072 172.02716637 C-18.15651146 169.92320994 -18.1835538 167.81939955 -18.21203613 165.7155304 C-18.26178256 161.96650373 -18.30618382 158.21743503 -18.34893799 154.46832275 C-18.47372123 143.54788957 -18.61434498 132.62794903 -18.80419922 121.70843506 C-18.85273249 118.90937581 -18.89423353 116.11034448 -18.93017578 113.31109619 C-18.98200353 109.40081477 -19.06728915 105.49165239 -19.15625 101.58203125 C-19.17455872 99.82991585 -19.17455872 99.82991585 -19.1932373 98.04240417 C-19.22292603 96.97113785 -19.25261475 95.89987152 -19.28320312 94.79614258 C-19.30096802 93.8648201 -19.31873291 92.93349762 -19.33703613 91.97395325 C-20.03419719 88.7678943 -21.34491482 87.52418263 -23.875 85.5 C-25.96273679 85.33597859 -25.96273679 85.33597859 -28.0625 86.0625 C-28.84238281 86.27777344 -29.62226563 86.49304688 -30.42578125 86.71484375 C-33.61062684 87.73582296 -36.78473036 88.77556547 -39.9296875 89.9140625 C-41.875 90.5 -41.875 90.5 -44.875 90.5 C-44.545 117.56 -44.215 144.62 -43.875 172.5 C-41.235 173.49 -38.595 174.48 -35.875 175.5 C-35.875 179.13 -35.875 182.76 -35.875 186.5 C-51.54378048 188.84917669 -67.03842986 189.70746598 -82.875 189.5 C-82.875 185.87 -82.875 182.24 -82.875 178.5 C-78.915 176.52 -78.915 176.52 -74.875 174.5 C-74.545 124.01 -74.215 73.52 -73.875 21.5 C-75.525 21.17 -77.175 20.84 -78.875 20.5 C-79.865 20.17 -80.855 19.84 -81.875 19.5 C-82.205 15.87 -82.535 12.24 -82.875 8.5 C-70.85045903 5.34923517 -58.75735649 2.77283312 -46.5625 0.375 C-44.80136467 0.02507974 -43.04029664 -0.32517939 -41.27929688 -0.67578125 C-37.17843394 -1.49100752 -33.07482616 -2.29124915 -28.97015381 -3.08703613 C-27.12512396 -3.45069949 -25.2841103 -3.83461434 -23.44384766 -4.22167969 C-14.11897441 -6.12133822 -8.19971935 -4.56639543 0 0 Z M-26.33984375 14.33984375 C-27.66338867 14.6037793 -27.66338867 14.6037793 -29.01367188 14.87304688 C-30.3990918 15.15245117 -30.3990918 15.15245117 -31.8125 15.4375 C-32.73224609 15.61990234 -33.65199219 15.80230469 -34.59960938 15.99023438 C-35.92508789 16.25610352 -35.92508789 16.25610352 -37.27734375 16.52734375 C-38.08679443 16.68968506 -38.89624512 16.85202637 -39.73022461 17.01928711 C-42.04175467 17.4994241 -42.04175467 17.4994241 -44.875 18.5 C-44.875 35.99 -44.875 53.48 -44.875 71.5 C-28.46062963 68.43523664 -28.46062963 68.43523664 -19.875 64.5 C-19.875 47.67 -19.875 30.84 -19.875 13.5 C-22.13859092 13.5 -24.11825536 13.89676607 -26.33984375 14.33984375 Z " fill="#FFFFFF" transform="translate(203.875,20.5)"/>
<path d="M0 0 C0.83313721 0.00789551 1.66627441 0.01579102 2.5246582 0.02392578 C8.76927733 0.10668228 15.01062069 0.29663236 21.25 0.5625 C22.06202881 0.5931958 22.87405762 0.6238916 23.71069336 0.65551758 C30.77810824 1.00812179 37.44807353 1.63232387 43 6.4375 C46.13797456 9.14344651 46.13797456 9.14344651 49.74149227 11.13121891 C52.61241486 12.52906863 54.44021885 13.78279158 56.5625 16.1875 C57.95519946 21.5425687 57.78397602 26.87334645 57.71118164 32.36303711 C57.72174563 34.02744802 57.73615198 35.6918383 57.75410461 37.35618591 C57.79082775 41.869193 57.77086226 46.38031183 57.73849797 50.89328837 C57.71196003 55.619939 57.73019432 60.34645278 57.74156189 65.07313538 C57.75335688 73.01154211 57.72791505 80.94918934 57.6809082 88.88745117 C57.62710464 98.05833701 57.63414397 107.22766373 57.6734286 116.39858812 C57.70966574 125.22793291 57.70071551 134.05669586 57.67196465 142.88604927 C57.66065118 146.64004587 57.6654734 150.3935068 57.68342781 154.14747429 C57.70268472 158.57145033 57.68242105 162.99354765 57.63200188 167.41726112 C57.61985414 169.03812656 57.6212163 170.65915967 57.63726807 172.27999115 C57.74591429 184.50692305 57.74591429 184.50692305 54.8098278 188.67648506 C52.80703829 190.46298409 50.88002822 191.84594418 48.5625 193.1875 C47.64082031 193.83460938 46.71914063 194.48171875 45.76953125 195.1484375 C44.58423828 195.84839844 44.58423828 195.84839844 43.375 196.5625 C42.17810547 197.28566406 42.17810547 197.28566406 40.95703125 198.0234375 C33.59823161 201.6007985 24.46777651 200.45133338 16.4921875 200.38500977 C14.6402655 200.37840036 12.78816266 200.39104249 10.93652344 200.42407227 C-3.17625813 200.66552168 -11.53788872 198.19908584 -22.4375 189.1875 C-23.4275 188.5275 -24.4175 187.8675 -25.4375 187.1875 C-25.83622742 185.30220032 -25.83622742 185.30220032 -25.86987305 182.9387207 C-25.88958664 182.03162857 -25.90930023 181.12453644 -25.92961121 180.18995667 C-25.9360817 179.17465378 -25.94255219 178.15935089 -25.94921875 177.11328125 C-25.96789505 176.01890244 -25.98657135 174.92452362 -26.0058136 173.79698181 C-26.0637778 170.03131253 -26.09681465 166.26600593 -26.125 162.5 C-26.13619873 161.18858032 -26.14739746 159.87716064 -26.15893555 158.52600098 C-26.20909203 152.57131285 -26.25584357 146.61664546 -26.28878784 140.66183472 C-26.35777841 129.39280974 -26.54838761 118.12967339 -26.79188633 106.86310482 C-27.00503069 96.84464105 -27.15907043 86.82613163 -27.27905178 76.80613041 C-27.3569033 70.49341597 -27.46137137 64.18353624 -27.62704468 57.87246704 C-27.78435056 51.82970864 -27.86844844 45.79004096 -27.90028954 39.74536324 C-27.92481987 37.49261004 -27.97540255 35.23996851 -28.05382729 32.98844719 C-28.61894377 16.12430692 -28.61894377 16.12430692 -24.94042969 11.17204285 C-20.93038962 7.27636905 -16.394228 4.70426627 -11.4375 2.1875 C-7.58717901 -0.37938066 -4.45796706 -0.07247272 0 0 Z M2.5625 19.1875 C2.5625 72.6475 2.5625 126.1075 2.5625 181.1875 C10.4825 181.5175 18.4025 181.8475 26.5625 182.1875 C27.86458241 181.10994672 27.86458241 181.10994672 27.68554783 178.53443813 C27.68462604 177.34071622 27.68370424 176.1469943 27.68275452 174.917099 C27.68360894 174.25470909 27.68446337 173.59231918 27.68534368 172.90985686 C27.68700033 170.6741713 27.68147414 168.43855958 27.67602539 166.20288086 C27.67574353 164.60669456 27.67590123 163.01050813 27.6764679 161.4143219 C27.67675592 157.06740105 27.67085835 152.72050756 27.66389394 148.37359309 C27.65766128 143.83586053 27.65705667 139.29812741 27.65586853 134.76039124 C27.65275495 126.1614216 27.64454122 117.56246461 27.63451904 108.96350056 C27.62335872 99.17648272 27.61784766 89.38946429 27.61282361 79.60244167 C27.60235862 59.46412052 27.58455828 39.3258115 27.5625 19.1875 C19.3125 19.1875 11.0625 19.1875 2.5625 19.1875 Z " fill="#FFFFFF" transform="translate(409.4375,-0.1875)"/>
<path d="M0 0 C0.16374356 1.3918203 0.27920565 2.78935868 0.375 4.1875 C0.47941406 5.35345703 0.47941406 5.35345703 0.5859375 6.54296875 C0.39257812 7.35378906 0.19921875 8.16460937 0 9 C-0.98614288 9.57807907 -1.97228577 10.15615814 -2.98831177 10.75175476 C-5.40218545 12.71458699 -5.95377128 13.76654935 -6.56713486 16.86397743 C-6.78117047 20.72488491 -6.80829728 24.56450051 -6.77294922 28.42895508 C-6.78112249 29.91737469 -6.79192634 31.40578183 -6.80516052 32.89416504 C-6.83359311 36.9291226 -6.82524628 40.96326393 -6.81029272 44.99826264 C-6.80091355 49.21708333 -6.82536251 53.4357047 -6.84622192 57.65446472 C-6.88057002 65.64067457 -6.88449848 73.6265981 -6.87749684 81.61286706 C-6.871006 90.70600463 -6.89842865 99.79894098 -6.92869925 108.89201891 C-6.99020024 127.59470585 -7.00911503 146.29722089 -7 165 C-4.36 165.66 -1.72 166.32 1 167 C1.02687279 168.81242052 1.04633715 170.62495233 1.0625 172.4375 C1.07410156 173.44683594 1.08570312 174.45617187 1.09765625 175.49609375 C1 178 1 178 0 179 C-2.29207485 179.30193296 -4.59250107 179.54076851 -6.89453125 179.75390625 C-7.5971257 179.81907944 -8.29972015 179.88425262 -9.02360535 179.95140076 C-10.5206583 180.08891613 -12.01792666 180.22410272 -13.51538086 180.35717773 C-15.76554981 180.55830347 -18.0145647 180.76979255 -20.26367188 180.98242188 C-28.54239346 181.74323629 -36.67544016 182.15183575 -45 182 C-45 178.37 -45 174.74 -45 171 C-41.04 169.02 -41.04 169.02 -37 167 C-36.97500405 161.13249002 -36.95700204 155.26501205 -36.94506836 149.39746094 C-36.94008554 147.40754658 -36.93329686 145.41763579 -36.92456055 143.42773438 C-36.91222625 140.5429597 -36.90671112 137.65823403 -36.90234375 134.7734375 C-36.89718246 133.90512299 -36.89202118 133.03680847 -36.88670349 132.1421814 C-36.88604784 124.67835017 -37.46363102 117.50916572 -38 110 C-46.91 113.3 -55.82 116.6 -65 120 C-65.33 136.83 -65.66 153.66 -66 171 C-64.02 171.33 -62.04 171.66 -60 172 C-59 173 -59 173 -58.90234375 175.50390625 C-58.91394531 176.51324219 -58.92554688 177.52257812 -58.9375 178.5625 C-58.94652344 179.57441406 -58.95554688 180.58632812 -58.96484375 181.62890625 C-58.97644531 182.41136719 -58.98804688 183.19382813 -59 184 C-64.90797208 184.5720828 -70.81617633 185.14168218 -76.72460938 185.70898438 C-78.73444077 185.90231225 -80.7442071 186.09631785 -82.75390625 186.29101562 C-85.64306049 186.57079538 -88.53244018 186.84813482 -91.421875 187.125 C-92.76895538 187.25624268 -92.76895538 187.25624268 -94.14324951 187.39013672 C-94.98381897 187.47021973 -95.82438843 187.55030273 -96.69042969 187.6328125 C-97.42767273 187.70387207 -98.16491577 187.77493164 -98.92449951 187.84814453 C-100.94489824 187.99596844 -102.97420067 188 -105 188 C-105.495 183.05 -105.495 183.05 -106 178 C-103.05162229 176.19821362 -100.10021321 174.52360906 -97 173 C-96.97667168 155.28507533 -96.95902116 137.57015463 -96.94818783 119.85521793 C-96.94302473 111.63044281 -96.93598177 103.40567721 -96.92456055 95.1809082 C-96.91461414 88.01479554 -96.90814668 80.84868977 -96.90591151 73.6825704 C-96.90460432 69.88583011 -96.90151802 66.08910955 -96.89426994 62.29237556 C-96.8875104 58.72281098 -96.8853829 55.15327437 -96.88689232 51.58370399 C-96.88648364 49.64085154 -96.8810881 47.69800216 -96.87557983 45.75515747 C-96.87764183 44.03660805 -96.87764183 44.03660805 -96.87974548 42.28334045 C-96.87836279 40.78035699 -96.87836279 40.78035699 -96.87695217 39.24701023 C-96.74767846 37.0298598 -96.74767846 37.0298598 -98 36 C-98.07179964 34.48071962 -98.08392007 32.95832518 -98.0625 31.4375 C-98.05347656 30.61121094 -98.04445313 29.78492187 -98.03515625 28.93359375 C-98.02355469 28.29550781 -98.01195313 27.65742187 -98 27 C-7.39984822 -3.69992411 -7.39984822 -3.69992411 0 0 Z M-66 33 C-66 55.44 -66 77.88 -66 101 C-55.7981633 97.93944899 -45.88923328 93.95569331 -36 90 C-36 68.55 -36 47.1 -36 25 C-46.3494498 25 -56.10821313 29.95637327 -66 33 Z " fill="#FFFFFF" transform="translate(111,33)"/>
<path d="M0 0 C1.04301319 13.40898707 -1.92401165 24.18543296 -6.125 36.8125 C-6.79301338 38.87845034 -7.45904652 40.94504184 -8.12329102 43.01220703 C-9.97820545 48.76063963 -11.86446977 54.49833624 -13.75823975 60.23406982 C-15.04794793 64.14541338 -16.33111465 68.05884554 -17.61181641 71.97314453 C-18.06159152 73.34759624 -18.51136979 74.72204691 -18.96115112 76.09649658 C-19.29931665 77.12988537 -19.29931665 77.12988537 -19.64431381 78.1841507 C-22.67438006 87.44112991 -25.71155001 96.69574712 -28.76269531 105.94580078 C-36.99732025 130.91469681 -45.0441853 155.94074503 -53 181 C-43.15137141 181.0572225 -33.34130652 180.94351808 -23.5 180.5 C-21.81970703 180.42845703 -21.81970703 180.42845703 -20.10546875 180.35546875 C-17.40349961 180.23999998 -14.70170289 180.121512 -12 180 C-11.01 176.04 -11.01 176.04 -10 172 C-5.38 172 -0.76 172 4 172 C4.02682299 176.31254083 4.04675244 180.62491707 4.0625 184.9375 C4.07087891 186.16919922 4.07925781 187.40089844 4.08789062 188.66992188 C4.09111328 189.83974609 4.09433594 191.00957031 4.09765625 192.21484375 C4.10289307 193.29886475 4.10812988 194.38288574 4.11352539 195.49975586 C4 198 4 198 3 199 C0.93201991 199.16176832 -1.14153838 199.25225433 -3.21484375 199.31640625 C-3.87740677 199.33723267 -4.53996979 199.35805908 -5.22261047 199.3795166 C-7.46077483 199.4467985 -9.69905784 199.50524476 -11.9375 199.5625 C-12.70678833 199.58367889 -13.47607666 199.60485779 -14.26867676 199.62667847 C-37.17306652 200.24502793 -60.08965611 200.09309887 -83 200 C-85.6551849 189.73667144 -82.81183687 180.96119592 -79.5625 171.1875 C-79.10188043 169.7652321 -78.64284235 168.34245115 -78.18530273 166.91918945 C-77.24911883 164.0106147 -76.30659056 161.1042186 -75.359375 158.19921875 C-73.36045657 152.04934885 -71.46479255 145.86779302 -69.5625 139.6875 C-62.93213994 118.28542928 -56.18722203 96.91934851 -49.4375 75.5546875 C-49.0331567 74.27473979 -48.62881405 72.99479187 -48.22447205 71.71484375 C-46.21503473 65.35422241 -44.20486771 58.99383305 -42.19360352 52.63378906 C-41.44286128 50.25846664 -40.69212846 47.88314125 -39.94140625 45.5078125 C-39.60322876 44.43916962 -39.26505127 43.37052673 -38.91662598 42.26950073 C-36.57470153 34.85739841 -34.27678826 27.43236 -32 20 C-36.16448054 19.92925354 -40.32314109 19.89971704 -44.48779297 19.93286133 C-45.90191209 19.93593058 -47.31616268 19.92315088 -48.72998047 19.89379883 C-57.12147437 19.47751976 -57.12147437 19.47751976 -64.29980469 23.07470703 C-65.8070327 25.33554905 -66.99296076 27.48049101 -68 30 C-69.81293089 29.85962479 -71.6253443 29.71255111 -73.4375 29.5625 C-74.95150391 29.44068359 -74.95150391 29.44068359 -76.49609375 29.31640625 C-79 29 -79 29 -80 28 C-80.08737645 26.14630389 -80.10698153 24.28932459 -80.09765625 22.43359375 C-80.09282227 20.7465332 -80.09282227 20.7465332 -80.08789062 19.02539062 C-80.07951172 17.84138672 -80.07113281 16.65738281 -80.0625 15.4375 C-80.05798828 14.24962891 -80.05347656 13.06175781 -80.04882812 11.83789062 C-80.03699675 8.89187774 -80.02051287 5.94596319 -80 3 C-72.67038624 2.6022116 -65.34046254 2.21070983 -58.01012135 1.82654572 C-54.60383349 1.64784765 -51.1976728 1.46723824 -47.79174805 1.28173828 C-31.84576814 0.41756905 -15.97087354 -0.23991298 0 0 Z " fill="#FFFFFF" transform="translate(368,0)"/>
<path d="M0 0 C1.51321139 -0.00789489 1.51321139 -0.00789489 3.05699271 -0.01594928 C4.17581314 -0.01155279 5.29463357 -0.00715631 6.44735765 -0.0026266 C8.22524533 -0.00743631 8.22524533 -0.00743631 10.03904992 -0.0123432 C13.35397314 -0.01925473 16.66867448 -0.01711421 19.98358569 -0.01128747 C23.58044953 -0.00713821 27.17729208 -0.01450709 30.77415085 -0.02043998 C37.0863532 -0.02922981 43.39852312 -0.03050427 49.71073008 -0.02693671 C59.09693863 -0.02164567 68.48311559 -0.0277088 77.86932071 -0.03601964 C95.60509674 -0.05129073 113.34085854 -0.05296155 131.07663977 -0.05049662 C144.76794029 -0.0486667 158.45923613 -0.05041721 172.15053606 -0.05472106 C174.11485909 -0.05532345 176.07918213 -0.05592465 178.04350516 -0.05652466 C181.00324058 -0.05743187 183.962976 -0.05834054 186.92271142 -0.05925701 C214.45409498 -0.06769119 241.98547677 -0.072019 269.51686144 -0.06785029 C270.55556401 -0.06769392 271.59426659 -0.06753754 272.66444499 -0.06737643 C277.92946847 -0.06657059 283.19449193 -0.06572482 288.45951539 -0.06486312 C290.02810084 -0.06460649 290.02810084 -0.06460649 291.62837488 -0.06434468 C293.74308342 -0.06399802 295.85779196 -0.06364949 297.9725005 -0.06329909 C330.88785908 -0.05794017 363.80319089 -0.06587526 396.71854448 -0.08433264 C433.66574446 -0.10502644 470.61292784 -0.11578043 507.56013393 -0.11175716 C511.49595848 -0.11136179 515.43178304 -0.11100024 519.36760759 -0.11065978 C520.33676823 -0.11056905 521.30592887 -0.11047831 522.30445802 -0.11038483 C536.96511241 -0.10921655 551.6257501 -0.11588462 566.28640032 -0.1264717 C582.94965204 -0.13849238 599.61286687 -0.14011893 616.27611911 -0.12768153 C625.61168093 -0.12102624 634.94715466 -0.12274506 644.28270953 -0.13627005 C650.50801748 -0.14446579 656.73325891 -0.14188111 662.95856137 -0.13029478 C666.51254528 -0.1239895 670.06635632 -0.12256161 673.62033075 -0.13415811 C677.43723812 -0.14649884 681.25387614 -0.13595795 685.070786 -0.12288111 C686.18960643 -0.13019046 687.30842686 -0.13749981 688.46115094 -0.14503065 C689.97436234 -0.13414915 689.97436234 -0.13414915 691.51814365 -0.12304783 C692.39212355 -0.12306829 693.26610345 -0.12308875 694.16656759 -0.12310984 C694.85709399 0.00062658 695.54762039 0.12436299 696.25907183 0.251849 C698.25907183 3.251849 698.25907183 3.251849 697.94657183 5.876849 C697.25907183 8.251849 697.25907183 8.251849 696.25907183 9.251849 C694.72271143 9.34992247 693.18182954 9.37783545 691.64234215 9.37834883 C690.63578185 9.38110857 689.62922155 9.38386831 688.59215942 9.38671169 C686.90998825 9.38362871 686.90998825 9.38362871 685.19383383 9.38048345 C684.00972922 9.38223649 682.82562462 9.38398952 681.60563806 9.38579568 C678.28934777 9.38967297 674.97311227 9.38901392 671.65682415 9.38651791 C668.06015895 9.38489364 664.4634998 9.38901827 660.86683649 9.39242709 C654.55342875 9.39759679 648.24002869 9.39899558 641.92661905 9.39797097 C632.53859944 9.39645107 623.15058837 9.40059658 613.76257041 9.4058456 C596.02339147 9.41553626 578.2842154 9.41833048 560.54503412 9.41890266 C546.85085052 9.41936149 533.15666806 9.4214161 519.46248484 9.42460328 C515.52639737 9.42550077 511.5903099 9.42639058 507.65422243 9.42727816 C506.67581361 9.42749921 505.6974048 9.42772026 504.68934723 9.427948 C477.15403613 9.43410554 449.61872542 9.43804823 422.0834136 9.43760473 C421.04444501 9.43758915 420.00547642 9.43757357 418.93502394 9.43755752 C413.66860964 9.4374744 408.40219535 9.43737536 403.13578106 9.43727281 C402.08977509 9.43725286 401.04376911 9.43723292 399.96606599 9.43721237 C397.85078579 9.43717193 395.73550558 9.43713013 393.62022538 9.43708698 C360.69832278 9.43647401 327.77643047 9.44398342 294.85453081 9.45765954 C257.90257943 9.47300331 220.95063482 9.4816268 183.99868006 9.48069632 C180.06227823 9.48062168 176.12587641 9.48057298 172.18947458 9.480542 C170.73551387 9.48052452 170.73551387 9.48052452 169.25218022 9.48050669 C153.61934188 9.48047585 137.98651244 9.4868754 122.35367676 9.49547427 C106.65629306 9.50393036 90.95892245 9.5049568 75.26153774 9.49836495 C65.92377634 9.49465563 56.58605457 9.4965426 47.24829733 9.50630729 C41.02149026 9.51227125 34.79471215 9.51105214 28.56790645 9.50383679 C25.01307408 9.49992469 21.45831885 9.49926642 17.90349168 9.50729414 C14.08567282 9.51584088 10.26797236 9.50913414 6.45015097 9.50073797 C5.33104469 9.50570614 4.21193841 9.51067432 3.05891982 9.51579306 C1.54532409 9.50866684 1.54532409 9.50866684 0.00115067 9.50139666 C-0.87305297 9.50148488 -1.74725661 9.5015731 -2.64795127 9.50166399 C-4.74092817 9.251849 -4.74092817 9.251849 -6.74092817 7.251849 C-6.99092817 4.751849 -6.99092817 4.751849 -6.74092817 2.251849 C-4.23532734 -0.25375183 -3.46130108 0.0014228 0 0 Z " fill="#FFFFFF" transform="translate(6.7409281730651855,237.74815100431442)"/>
<path d="M0 0 C0.495 4.95 0.495 4.95 1 10 C-0.46392685 10.6654483 -1.9278537 11.33089661 -3.43614197 12.01651001 C-6.68594732 14.21242307 -7.82662266 15.33722899 -8.83017159 19.17350388 C-9.11151911 23.38513684 -9.11420007 27.51925864 -9.02172852 31.73583984 C-9.01918843 33.3524664 -9.02061764 34.96910334 -9.02571106 36.58572388 C-9.0282907 40.96630743 -8.97542933 45.34466754 -8.91254544 49.72473478 C-8.85623473 54.30503239 -8.85099316 58.88538256 -8.84031677 63.4659729 C-8.81235741 72.1360929 -8.73852239 80.80519002 -8.64817137 89.47485983 C-8.54753014 99.34649222 -8.49807962 109.2181738 -8.45291245 119.0901916 C-8.35887075 139.39403172 -8.20059618 159.69695139 -8 180 C-5.36 181.32 -2.72 182.64 0 184 C0.02688151 185.64574566 0.04634123 187.29161413 0.0625 188.9375 C0.07410156 189.85402344 0.08570313 190.77054688 0.09765625 191.71484375 C0 194 0 194 -1 195 C-6.19649272 195.93152192 -11.29829272 196.19939629 -16.55859375 196.31640625 C-17.74232323 196.3475779 -17.74232323 196.3475779 -18.94996643 196.37937927 C-21.44573109 196.44423305 -23.94159178 196.50345805 -26.4375 196.5625 C-28.13998348 196.60574642 -29.84245762 196.64936256 -31.54492188 196.69335938 C-35.69651873 196.79984763 -39.84821118 196.90129147 -44 197 C-44.13504138 195.06440687 -44.23201129 193.126128 -44.3125 191.1875 C-44.37050781 190.10855469 -44.42851562 189.02960938 -44.48828125 187.91796875 C-44 185 -44 185 -41.60546875 183.11328125 C-39 182 -39 182 -37 182 C-37.33 128.21 -37.66 74.42 -38 19 C-39.98 18.01 -41.96 17.02 -44 16 C-45 15 -45 15 -45.09765625 12.71484375 C-45.06510417 10.14322917 -45.03255208 7.57161458 -45 5 C-36.21795635 3.42241162 -27.43536151 2.29955123 -18.5625 1.375 C-17.32306641 1.2409375 -16.08363281 1.106875 -14.80664062 0.96875 C-9.82273265 0.44101042 -5.01927415 0 0 0 Z " fill="#FFFFFF" transform="translate(276,5)"/>
<path d="M0 0 C0.69366889 0.00468233 1.38733778 0.00936466 2.10202694 0.01418889 C3.20878607 0.00982856 3.20878607 0.00982856 4.33790398 0.00538015 C6.83589722 -0.00197869 9.33364933 0.00505065 11.8316412 0.01190388 C13.63035617 0.00960177 15.4290702 0.00642693 17.22778225 0.00244939 C22.19051384 -0.00594156 27.15316904 -0.00175394 32.11590099 0.00442183 C37.46019936 0.00892783 42.80448416 0.00197181 48.14877987 -0.00353801 C58.6261526 -0.01245355 69.10349676 -0.01050042 79.58087063 -0.00471273 C88.09244173 -0.00020472 96.60400479 0.0004204 105.11557674 -0.00176036 C106.92939036 -0.00222006 106.92939036 -0.00222006 108.77984667 -0.00268905 C111.23596414 -0.00332847 113.69208161 -0.00397689 116.14819908 -0.00463423 C139.20509764 -0.01034385 162.26198031 -0.00376974 185.31887627 0.0069665 C205.12326941 0.01590258 224.92763911 0.01435072 244.73203182 0.00512898 C267.70373833 -0.00556251 290.6754309 -0.00979447 313.64713955 -0.00364649 C316.09446366 -0.00300936 318.54178778 -0.00238062 320.9891119 -0.00176036 C322.19339258 -0.00145181 323.39767325 -0.00114326 324.63844728 -0.00082536 C333.14449903 0.00090495 341.65054198 -0.00202074 350.15659237 -0.00671947 C360.51587183 -0.01231587 370.87512097 -0.01083811 381.23439693 -0.00015798 C386.5246717 0.00511552 391.81489581 0.00712708 397.10517025 0.00054371 C401.94100257 -0.00538333 406.77673693 -0.00219477 411.61256027 0.00849882 C413.36891647 0.01074672 415.12528082 0.00956578 416.88163185 0.00474724 C419.25542881 -0.00126942 421.62888314 0.00483686 424.00266171 0.01418889 C424.6963306 0.00950655 425.38999949 0.00482422 426.10468864 0 C430.82404356 0.03757041 430.82404356 0.03757041 433.05234432 2.26587117 C433.30234432 4.76587117 433.30234432 4.76587117 433.05234432 7.26587117 C430.63615625 9.68205923 429.40111238 9.50549977 426.10468864 9.53174233 C425.41101975 9.52706 424.71735086 9.52237767 424.00266171 9.51755345 C423.26482228 9.52046033 422.52698286 9.52336721 421.76678467 9.52636218 C419.26879143 9.53372102 416.77103932 9.52669168 414.27304745 9.51983845 C412.47433248 9.52214056 410.67561844 9.5253154 408.87690639 9.52929294 C403.91417481 9.53768389 398.9515196 9.53349627 393.98878765 9.5273205 C388.64448928 9.5228145 383.30020449 9.52977053 377.95590878 9.53528035 C367.47853604 9.54419588 357.00119189 9.54224275 346.52381802 9.53645507 C338.01224692 9.53194705 329.50068385 9.53132193 320.9891119 9.5335027 C319.17529829 9.5339624 319.17529829 9.5339624 317.32484198 9.53443138 C314.8687245 9.5350708 312.41260703 9.53571923 309.95648956 9.53637657 C286.89959101 9.54208619 263.84270833 9.53551207 240.78581238 9.52477583 C220.98141924 9.51583975 201.17704954 9.51739162 181.37265682 9.52661335 C158.40095032 9.53730484 135.42925774 9.54153681 112.4575491 9.53538883 C110.01022498 9.5347517 107.56290086 9.53412296 105.11557674 9.5335027 C103.91129607 9.53319415 102.70701539 9.5328856 101.46624136 9.53256769 C92.96018961 9.53083738 84.45414666 9.53376307 75.94809628 9.5384618 C65.58881681 9.5440582 55.22956768 9.54258044 44.87029171 9.53190032 C39.58001695 9.52662682 34.28979284 9.52461525 28.99951839 9.53119862 C24.16368608 9.53712567 19.32795171 9.5339371 14.49212837 9.52324352 C12.73577217 9.52099562 10.97940782 9.52217655 9.22305679 9.52699509 C6.84925983 9.53301175 4.4758055 9.52690547 2.10202694 9.51755345 C1.40835805 9.52223578 0.71468916 9.52691811 0 9.53174233 C-4.71935492 9.49417193 -4.71935492 9.49417193 -6.94765568 7.26587117 C-7.19765568 4.76587117 -7.19765568 4.76587117 -6.94765568 2.26587117 C-4.53146761 -0.1503169 -3.29642374 0.02624257 0 0 Z " fill="#FFFFFF" transform="translate(778.9476556777954,237.73412883281708)"/>
<path d="M0 0 C3.42089639 0.03593251 4.88998139 0.22603963 7.48779297 2.50634766 C9.44339149 5.08711769 11.16059427 7.71989142 12.83984375 10.48828125 C14.02418885 12.32931824 15.21031568 14.16921057 16.3984375 16.0078125 C16.90560303 16.82999268 17.41276855 17.65217285 17.93530273 18.49926758 C19.27705953 20.48990859 20.64207938 22.05502806 22.40234375 23.67578125 C23.07608032 22.68396851 23.07608032 22.68396851 23.76342773 21.67211914 C25.78777665 18.69340809 27.81378731 15.7158311 29.83984375 12.73828125 C30.54689453 11.69736328 31.25394531 10.65644531 31.98242188 9.58398438 C32.65595703 8.59462891 33.32949219 7.60527344 34.0234375 6.5859375 C34.64661865 5.66949463 35.2697998 4.75305176 35.91186523 3.80883789 C37.40234375 1.67578125 37.40234375 1.67578125 38.40234375 0.67578125 C40.25521877 0.60351623 42.11068253 0.59196905 43.96484375 0.61328125 C44.97675781 0.62230469 45.98867188 0.63132813 47.03125 0.640625 C47.81371094 0.65222656 48.59617187 0.66382813 49.40234375 0.67578125 C49.42761213 7.63581572 49.44517597 14.59583845 49.45727539 21.5559082 C49.46231716 23.92570437 49.4691504 26.2954974 49.4777832 28.6652832 C49.48985565 32.06332164 49.49557346 35.4613191 49.5 38.859375 C49.50516129 39.9260289 49.51032257 40.9926828 49.51564026 42.09165955 C49.51571579 43.07260086 49.51579132 44.05354218 49.51586914 45.06420898 C49.51808975 45.93246811 49.52031036 46.80072723 49.52259827 47.69529724 C49.40234375 49.67578125 49.40234375 49.67578125 48.40234375 50.67578125 C46.90496251 50.77368695 45.40291483 50.80552989 43.90234375 50.80078125 C43.08765625 50.80335938 42.27296875 50.8059375 41.43359375 50.80859375 C39.40234375 50.67578125 39.40234375 50.67578125 38.40234375 49.67578125 C38.24375533 47.53191468 38.15105077 45.38311287 38.0859375 43.234375 C38.04404297 41.92919922 38.00214844 40.62402344 37.95898438 39.27929688 C37.91916767 37.89062795 37.8794555 36.50195603 37.83984375 35.11328125 C37.79666386 33.72068942 37.75304975 32.32811097 37.70898438 30.93554688 C37.60248499 27.51573324 37.50047452 24.09584362 37.40234375 20.67578125 C35.79787444 22.75888211 34.19375857 24.84225352 32.58984375 26.92578125 C32.13802734 27.51230469 31.68621094 28.09882813 31.22070312 28.703125 C30.77919922 29.27675781 30.33769531 29.85039062 29.8828125 30.44140625 C29.44888184 30.99763672 29.01495117 31.55386719 28.56787109 32.12695312 C27.28729925 33.7819246 27.28729925 33.7819246 25.890625 36.09765625 C24.40234375 37.67578125 24.40234375 37.67578125 22.10546875 38.38671875 C17.70444854 37.229225 15.79024153 33.84384003 13.15234375 30.30078125 C12.6109375 29.60210937 12.06953125 28.9034375 11.51171875 28.18359375 C7.63895089 23.14899554 7.63895089 23.14899554 6.40234375 20.67578125 C6.3772876 21.54904053 6.35223145 22.4222998 6.32641602 23.32202148 C6.23146666 26.55180677 6.13222346 29.78142279 6.0300293 33.01098633 C5.98662941 34.41067324 5.94495811 35.81041484 5.9050293 37.21020508 C5.8474493 39.2183962 5.78320375 41.22639274 5.71875 43.234375 C5.68209229 44.44407959 5.64543457 45.65378418 5.60766602 46.90014648 C5.40234375 49.67578125 5.40234375 49.67578125 4.40234375 50.67578125 C2.71625409 50.74783636 1.02733716 50.75964193 -0.66015625 50.73828125 C-1.57925781 50.72925781 -2.49835937 50.72023437 -3.4453125 50.7109375 C-4.15558594 50.69933594 -4.86585938 50.68773437 -5.59765625 50.67578125 C-5.62292463 43.71574678 -5.64048847 36.75572405 -5.65258789 29.7956543 C-5.65762966 27.42585813 -5.6644629 25.0560651 -5.6730957 22.6862793 C-5.68516815 19.28824086 -5.69088596 15.8902434 -5.6953125 12.4921875 C-5.70047379 11.4255336 -5.70563507 10.3588797 -5.71095276 9.25990295 C-5.71102829 8.27896164 -5.71110382 7.29802032 -5.71118164 6.28735352 C-5.71340225 5.41909439 -5.71562286 4.55083527 -5.71791077 3.65626526 C-5.49356301 -0.03854105 -3.28259743 0.29734236 0 0 Z " fill="#FFFFFF" transform="translate(926.59765625,164.32421875)"/>
<path d="M0 0 C2.90086447 0.03957288 4.39198253 0.19096048 6.74121094 1.93115234 C8.55148863 3.94917544 10.15430277 6.03316827 11.7421875 8.23046875 C12.94031132 9.78860298 14.13954433 11.34588487 15.33984375 12.90234375 C16.2218042 14.07313477 16.2218042 14.07313477 17.12158203 15.26757812 C19.68648754 18.61092348 22.4233054 21.79475368 25.1796875 24.98046875 C29.72551304 30.25961982 29.72551304 30.25961982 30.8671875 32.54296875 C31.1971875 21.98296875 31.5271875 11.42296875 31.8671875 0.54296875 C35.1671875 0.54296875 38.4671875 0.54296875 41.8671875 0.54296875 C42.8671875 1.54296875 42.8671875 1.54296875 42.98744202 3.52345276 C42.98522141 4.39171188 42.98300079 5.25997101 42.98071289 6.15454102 C42.98063736 7.13548233 42.98056183 8.11642365 42.98048401 9.12709045 C42.97532272 10.19374435 42.97016144 11.26039825 42.96484375 12.359375 C42.9634288 13.44556625 42.96201385 14.53175751 42.96055603 15.65086365 C42.95493798 19.1357595 42.94238242 22.62059217 42.9296875 26.10546875 C42.92467483 28.46158762 42.92011152 30.81770749 42.91601562 33.17382812 C42.90496269 38.96356339 42.88820701 44.75326156 42.8671875 50.54296875 C41.114399 50.63334282 39.36025918 50.6977515 37.60595703 50.7512207 C36.62934113 50.78987747 35.65272522 50.82853424 34.64651489 50.86836243 C31.33983814 50.48122858 30.27647981 49.61820964 28.046875 47.2109375 C26.91082442 45.74351113 25.81011049 44.24819453 24.7421875 42.73046875 C23.86288574 41.57200439 23.86288574 41.57200439 22.96582031 40.39013672 C21.79154489 38.84281443 20.62975753 37.28592526 19.48144531 35.71923828 C17.29716637 32.77449198 14.97059398 29.97919224 12.6171875 27.16796875 C10.55699795 24.66631001 8.66666846 22.24219019 6.8671875 19.54296875 C6.5371875 29.77296875 6.2071875 40.00296875 5.8671875 50.54296875 C2.2371875 50.54296875 -1.3928125 50.54296875 -5.1328125 50.54296875 C-5.15745451 43.58292909 -5.17564472 36.62291459 -5.18774414 29.6628418 C-5.19278591 27.29304563 -5.19961915 24.9232526 -5.20825195 22.5534668 C-5.2203244 19.15542836 -5.22604221 15.7574309 -5.23046875 12.359375 C-5.23563004 11.2927211 -5.24079132 10.2260672 -5.24610901 9.12709045 C-5.24618454 8.14614914 -5.24626007 7.16520782 -5.24633789 6.15454102 C-5.2485585 5.28628189 -5.25077911 4.41802277 -5.25306702 3.52345276 C-5.03764641 -0.02433141 -3.17597694 0.24086899 0 0 Z " fill="#FFFFFF" transform="translate(1111.1328125,164.45703125)"/>
<path d="M0 0 C7.02611195 5.78774342 10.21540547 11.53072957 11.10546875 20.609375 C10.47823761 28.26159497 7.36416817 35.09828445 1.79296875 40.421875 C-6.43281446 45.84676428 -13.36443694 47.30565038 -23.20703125 46.421875 C-31.95352127 44.09349904 -37.46773642 40.07541599 -42.19140625 32.421875 C-45.477662 25.95047907 -45.29710458 17.03024386 -43.26953125 10.171875 C-40.56903767 4.04137062 -34.51655105 -0.76420835 -28.51953125 -3.515625 C-17.86676648 -6.93254955 -9.16772773 -6.55533098 0 0 Z M-30.01953125 10.484375 C-33.88883864 15.68030207 -33.84636162 20.05558528 -33.20703125 26.421875 C-30.89958593 31.30300932 -28.0036493 33.97831486 -23.20703125 36.421875 C-17.13383798 38.03991554 -12.74941592 37.61940462 -7.20703125 34.421875 C-3.66816863 31.43350212 -1.36288124 28.94019768 -0.20703125 24.421875 C0.2398502 18.79116879 0.0132518 15.25229958 -3.20703125 10.421875 C-7.2138831 6.37123242 -10.77801851 4.29087008 -16.51953125 4.171875 C-22.39855414 4.267159 -26.18571523 6.01705093 -30.01953125 10.484375 Z " fill="#FFFFFF" transform="translate(896.20703125,169.578125)"/>
<path d="M0 0 C10 0 10 0 12.671875 2.24609375 C13.35765625 3.29925781 14.0434375 4.35242188 14.75 5.4375 C15.56202794 6.6215043 16.37871339 7.80232338 17.19921875 8.98046875 C17.63540527 9.62161621 18.0715918 10.26276367 18.52099609 10.92333984 C21.32705999 14.86331665 24.46511808 18.53793957 27.5625 22.25 C28.18286133 23.00079834 28.80322266 23.75159668 29.44238281 24.52514648 C32.1210916 27.85210855 32.1210916 27.85210855 35 31 C35.33 20.77 35.66 10.54 36 0 C39.3 0 42.6 0 46 0 C46 16.17 46 32.34 46 49 C43.11138291 50.44430855 41.20352299 50.37688506 38 50 C35.6015625 47.80078125 35.6015625 47.80078125 33 45 C32.20980469 44.16082031 31.41960938 43.32164062 30.60546875 42.45703125 C25.14728249 36.48741559 19.98008149 30.37189466 15 24 C13.68 22.35 12.36 20.7 11 19 C10.67 28.9 10.34 38.8 10 49 C6.7 49 3.4 49 0 49 C0 32.83 0 16.66 0 0 Z " fill="#FFFFFF" transform="translate(878,93)"/>
<path d="M0 0 C1.37478516 0.01740234 1.37478516 0.01740234 2.77734375 0.03515625 C3.69644531 0.04417969 4.61554688 0.05320313 5.5625 0.0625 C6.27277344 0.07410156 6.98304687 0.08570313 7.71484375 0.09765625 C14.47969654 13.44342324 20.95552287 26.9266559 27.42138672 40.41894531 C28.20994488 42.05202574 29.02548088 43.67287186 29.88720703 45.26855469 C30.71484375 47.09765625 30.71484375 47.09765625 30.71484375 50.09765625 C27.08484375 50.09765625 23.45484375 50.09765625 19.71484375 50.09765625 C19.14378906 48.64488281 18.57273437 47.19210938 17.984375 45.6953125 C16.27083828 42.6109464 15.42153456 41.34453796 12.05224609 40.16748047 C8.81646559 39.76114575 5.66282694 39.59422988 2.40234375 39.53515625 C1.28021484 39.48037109 0.15808594 39.42558594 -0.99804688 39.36914062 C-3.76120665 39.23980123 -6.51965358 39.15074729 -9.28515625 39.09765625 C-9.59453125 40.02835938 -9.90390625 40.9590625 -10.22265625 41.91796875 C-12.22420387 47.90789435 -12.22420387 47.90789435 -14.28515625 50.09765625 C-17.65528089 50.52776909 -20.90652228 50.38290677 -24.28515625 50.09765625 C-22.70449072 44.91658591 -20.86927728 40.05936633 -18.5625 35.15625 C-14.98545943 27.48318344 -11.5651694 19.74432237 -8.15795898 11.99462891 C-7.37295219 10.2103724 -6.58496674 8.42742731 -5.796875 6.64453125 C-5.10791138 5.07977051 -5.10791138 5.07977051 -4.4050293 3.48339844 C-2.82661551 0.12079553 -2.82661551 0.12079553 0 0 Z M2.71484375 13.09765625 C1.54351317 15.55386476 0.37762653 18.01240542 -0.78515625 20.47265625 C-1.11902344 21.17132813 -1.45289063 21.87 -1.796875 22.58984375 C-3.63725023 26.18593624 -3.63725023 26.18593624 -4.28515625 30.09765625 C0.66484375 30.09765625 5.61484375 30.09765625 10.71484375 30.09765625 C9.32348103 25.92356808 7.92302602 22.17847063 6.08984375 18.22265625 C5.64382813 17.25585938 5.1978125 16.2890625 4.73828125 15.29296875 C4.40054687 14.56851563 4.0628125 13.8440625 3.71484375 13.09765625 C3.38484375 13.09765625 3.05484375 13.09765625 2.71484375 13.09765625 Z " fill="#FFFFFF" transform="translate(1063.28515625,164.90234375)"/>
<path d="M0 0 C4.269375 -0.0825 8.53875 -0.165 12.9375 -0.25 C14.26515381 -0.28641602 15.59280762 -0.32283203 16.96069336 -0.36035156 C24.09338329 -0.42670714 29.90048452 0.06670822 36 4 C39.59547666 7.59547666 41.95686085 11.14322932 42.03515625 16.328125 C41.69378511 21.88997677 40.84707515 25.74796958 37 30 C30.72582431 34.53783405 25.2921978 35.14911535 17.75 35.0625 C17.00492188 35.05798828 16.25984375 35.05347656 15.4921875 35.04882812 C13.6614236 35.03709246 11.83070127 35.0191585 10 35 C10 39.95 10 44.9 10 50 C6.7 50 3.4 50 0 50 C0 33.5 0 17 0 0 Z M11 9 C10.67 14.61 10.34 20.22 10 26 C12.041875 26.04125 14.08375 26.0825 16.1875 26.125 C17.33605469 26.14820313 18.48460937 26.17140625 19.66796875 26.1953125 C23.8655164 25.94926633 26.73689175 25.13679742 29.875 22.3125 C31.55034251 18.86874039 30.99044279 16.63162357 30 13 C26.65612845 9.44869225 22.85539839 9.46604641 18.25 9.3125 C14.66125 9.1578125 14.66125 9.1578125 11 9 Z " fill="#FFFFFF" transform="translate(994,165)"/>
<path d="M0 0 C1.4032811 1.16224694 2.72968051 2.41637888 4.03515625 3.6875 C2.76033535 6.53133123 1.58378547 8.82504018 -0.96484375 10.6875 C-3.71857986 10.49080456 -5.71745244 9.3256689 -8.21484375 8.125 C-14.37417752 5.46469201 -20.85192514 6.18093409 -27.0390625 8.45703125 C-30.12031403 10.42578223 -30.83282485 12.74621889 -31.66796875 16.2109375 C-32.28408091 21.35061002 -31.7912778 25.73015619 -29.77734375 30.5 C-26.79590952 34.09828269 -23.60948679 36.17583328 -19.15234375 37.5625 C-14.91635828 37.72861708 -10.94870537 37.17480834 -6.96484375 35.6875 C-5.9636235 34.68872175 -4.96344808 33.68889373 -3.96484375 32.6875 C-1.27734375 33 -1.27734375 33 1.03515625 33.6875 C1.03515625 34.3475 1.03515625 35.0075 1.03515625 35.6875 C2.35515625 36.3475 3.67515625 37.0075 5.03515625 37.6875 C1.62637514 43.11056086 -2.98342681 45.77470087 -8.96484375 47.6875 C-18.49839466 48.93992571 -26.0409873 47.78227727 -33.92578125 42.33203125 C-39.14674017 38.22355514 -42.6512359 33.30510937 -43.96484375 26.6875 C-44.70151851 18.35740847 -43.51211852 11.71653114 -38.40234375 5 C-28.96615335 -5.3348752 -11.75867359 -7.85470045 0 0 Z " fill="#FFFFFF" transform="translate(836.96484375,168.3125)"/>
<path d="M0 0 C6.72069791 2.21740224 9.82050676 10.12060136 13.06640625 16.01171875 C14.93440599 19.68183861 14.93440599 19.68183861 18.06640625 22.01171875 C18.30230469 21.33496094 18.53820313 20.65820312 18.78125 19.9609375 C20.37280813 16.30857766 22.43596658 13.13961095 24.62890625 9.82421875 C27.52134372 5.52006677 27.52134372 5.52006677 30.06640625 1.01171875 C34.02640625 1.01171875 37.98640625 1.01171875 42.06640625 1.01171875 C40.3643689 5.26681212 38.84093999 7.9352982 36.1875 11.5546875 C27.18875613 24.23360335 20.61017995 33.85165186 22.06640625 50.01171875 C21.06640625 51.01171875 21.06640625 51.01171875 19.03515625 51.14453125 C18.22046875 51.14195312 17.40578125 51.139375 16.56640625 51.13671875 C15.75171875 51.13929688 14.93703125 51.141875 14.09765625 51.14453125 C12.06640625 51.01171875 12.06640625 51.01171875 11.06640625 50.01171875 C11.14761719 48.88636719 11.22882813 47.76101562 11.3125 46.6015625 C12.17380404 31.14915525 4.91318478 21.46878791 -4.14013672 9.48095703 C-5.89518572 7.06459907 -7.43690774 4.59438303 -8.93359375 2.01171875 C-6.64295193 -0.27892307 -3.04208694 0.01189865 0 0 Z " fill="#FFFFFF" transform="translate(1172.93359375,163.98828125)"/>
<path d="M0 0 C14.19 0 28.38 0 43 0 C42.67 2.97 42.34 5.94 42 9 C37.05 9 32.1 9 27 9 C27 22.2 27 35.4 27 49 C23.37 49 19.74 49 16 49 C16 35.8 16 22.6 16 9 C10.72 9 5.44 9 0 9 C0 6.03 0 3.06 0 0 Z " fill="#FFFFFF" transform="translate(938,93)"/>
<path d="M0 0 C13.53 0 27.06 0 41 0 C41 2.97 41 5.94 41 9 C36.05 9.33 31.1 9.66 26 10 C25.67 22.87 25.34 35.74 25 49 C23 50 23 50 15 49 C14.67 36.13 14.34 23.26 14 10 C9.71 10 5.42 10 1 10 C0.67 9.67 0.34 9.34 0 9 C0 6.03 0 3.06 0 0 Z " fill="#FFFFFF" transform="translate(793,93)"/>
<path d="M0 0 C3.3 0 6.6 0 10 0 C10.85476117 16.42456464 11.01251642 32.58165674 10 49 C6.7 49 3.4 49 0 49 C0 32.83 0 16.66 0 0 Z " fill="#FFFFFF" transform="translate(848,93)"/>
</svg>
